<?xml version="1.0" encoding="utf-8"?>
<!-- Generator: Adobe Illustrator 18.0.0, SVG Export Plug-In . SVG Version: 6.00 Build 0)  -->
<!DOCTYPE svg PUBLIC "-//W3C//DTD SVG 1.1//EN" "http://www.w3.org/Graphics/SVG/1.1/DTD/svg11.dtd">
<svg version="1.1" id="Layer_1" xmlns="http://www.w3.org/2000/svg" xmlns:xlink="http://www.w3.org/1999/xlink" x="0px" y="0px"
	 viewBox="0 0 841.9 1190.6" enable-background="new 0 0 841.9 1190.6" xml:space="preserve">
<g>
	<path fill="#A2CD3A" d="M40.9,505c-1.2,0-2.3-0.6-3-1.7c-1-1.7-0.4-3.8,1.2-4.8L70.8,480l-31.3-15.1c-1.2-0.6-1.9-1.7-2-3
		c0-1.3,0.6-2.5,1.8-3.1l31.3-17.6l-31.1-14.9c-1.1-0.5-1.8-1.6-2-2.8c-0.1-1.2,0.4-2.4,1.4-3.1l32.3-23.8l-31.7-13.9
		c-1.8-0.8-2.6-2.8-1.8-4.6c0.8-1.8,2.8-2.6,4.6-1.8l37.2,16.3c1.1,0.5,1.9,1.6,2.1,2.8c0.1,1.2-0.4,2.4-1.4,3.2l-32.5,23.9l32,15.3
		c1.2,0.6,1.9,1.7,2,3c0,1.3-0.6,2.5-1.8,3.1l-31.4,17.6l31.2,15.1c1.2,0.6,1.9,1.7,2,3c0.1,1.3-0.6,2.5-1.7,3.1l-37.2,21.9
		C42.1,504.9,41.5,505,40.9,505z"/>
	<path fill="#A2CD3A" d="M680.7,765.5c-1.1,0-2.1-0.5-2.8-1.4l-23.9-32.5l-15.3,32c-0.6,1.2-1.7,1.9-3,2c-1.3,0-2.5-0.6-3.1-1.8
		L615,732.4L600,763.5c-0.6,1.2-1.7,1.9-3,2c-1.2,0.1-2.5-0.6-3.1-1.7L572,726.6c-1-1.7-0.4-3.8,1.2-4.8c1.7-1,3.8-0.4,4.8,1.2
		l18.6,31.6l15.1-31.3c0.6-1.2,1.7-1.9,3-2c1.3,0,2.5,0.6,3.1,1.8l17.6,31.3l14.9-31.1c0.5-1.1,1.6-1.8,2.8-2
		c1.2-0.1,2.4,0.4,3.1,1.4l23.8,32.3l13.9-31.7c0.8-1.8,2.8-2.6,4.6-1.8c1.8,0.8,2.6,2.8,1.8,4.6l-16.3,37.2
		c-0.5,1.1-1.6,1.9-2.8,2.1C681,765.5,680.9,765.5,680.7,765.5z"/>
	<path fill="#A2CD3A" d="M550,242.2c-0.5,0-0.9-0.1-1.4-0.3c-1.8-0.8-2.6-2.8-1.8-4.6l16.3-37.2c0.5-1.1,1.6-1.9,2.8-2.1
		c1.2-0.1,2.4,0.4,3.2,1.4L593,232l15.3-32c0.6-1.2,1.7-1.9,3-2c1.3,0,2.5,0.6,3.1,1.8l17.6,31.4l15.1-31.2c0.6-1.2,1.7-1.9,3-2
		c1.2,0,2.5,0.6,3.1,1.7l21.9,37.2c1,1.7,0.4,3.8-1.2,4.8c-1.7,1-3.8,0.4-4.8-1.2l-18.6-31.6l-15.1,31.3c-0.6,1.2-1.7,1.9-3,2
		c-1.3,0-2.5-0.6-3.1-1.8L611.7,209l-14.9,31.1c-0.5,1.1-1.6,1.8-2.8,2c-1.2,0.1-2.4-0.4-3.1-1.4l-23.8-32.3l-13.9,31.7
		C552.6,241.4,551.3,242.2,550,242.2z"/>
	<path fill="#A2CD3A" d="M412.8,728.3L412.8,728.3c-0.5,0-4.5-0.1-7.9-3.6c-3.2-3.3-4.7-8.2-4.4-14.7c0.2-7.3-1.4-12.9-4.8-16.4
		c-3.4-3.6-7.8-4.2-9.1-4.3c-3.2,0.8-18.7,4.1-28.2-3.7c-5.6-4.6-8-11.9-7.2-21.7c0.7-8.2-1-14.1-5.1-17.7c-6.8-6-18.8-3.7-18.9-3.7
		c0,0-0.1,0-0.1,0c-0.4,0.1-9.8,1.6-17.2-3.8c-4.4-3.2-7-8.1-7.9-14.6c-3-22.9-4-28.9-4-29c-0.3-1.9,0.9-3.7,2.8-4
		c1.9-0.3,3.7,0.9,4,2.8c0,0.2,1,6.1,4.1,29.2c0.6,4.5,2.3,7.8,5.1,9.9c4.7,3.5,11.3,2.6,11.8,2.5c1.4-0.3,15.6-2.9,24.8,5.3
		c5.8,5.1,8.2,13,7.4,23.5c-0.6,7.4,1,12.7,4.7,15.8c6.4,5.3,18.4,3.4,22.5,2.3c0.3-0.1,0.6-0.1,0.9-0.1c0.3,0,8.3,0.1,14.5,6.4
		c4.8,5,7.1,12.2,6.8,21.5c-0.4,10.6,4.9,11.2,5.5,11.2c1.9,0,3.4,1.6,3.4,3.5C416.3,726.8,414.7,728.3,412.8,728.3z"/>
	<path fill="#A2CD3A" d="M274.2,194.2L274.2,194.2c-1.9,0-3.5-1.6-3.5-3.5c0-0.5,0.1-4.5,3.6-7.9c3.3-3.2,8.3-4.6,14.7-4.4
		c7.3,0.2,12.8-1.4,16.4-4.8c3.6-3.4,4.2-7.9,4.4-9.2c-0.8-3.2-4.1-18.7,3.7-28.2c4.6-5.6,11.9-8,21.7-7.2c8.2,0.7,14.1-1,17.7-5.1
		c6-6.8,3.7-18.8,3.7-18.9c0,0,0-0.1,0-0.1c-0.1-0.4-1.6-9.8,3.8-17.2c3.2-4.4,8.1-7,14.6-7.9c22.9-3,28.9-4,29-4
		c1.9-0.3,3.7,0.9,4,2.8c0.3,1.9-0.9,3.7-2.8,4c-0.2,0-6.1,1-29.2,4.1c-4.5,0.6-7.8,2.3-9.9,5.1c-3.5,4.7-2.6,11.4-2.5,11.8
		c0.3,1.4,2.9,15.6-5.3,24.8c-5.1,5.8-13,8.2-23.5,7.4c-7.4-0.6-12.7,1-15.8,4.7c-6.3,7.7-2.3,22.4-2.3,22.5
		c0.1,0.3,0.1,0.6,0.1,0.9c0,0.3-0.1,8.3-6.4,14.5c-5,4.8-12.2,7.1-21.5,6.8c-4.5-0.2-7.9,0.7-9.7,2.5c-1.4,1.4-1.5,2.9-1.5,2.9
		C277.6,192.7,276.1,194.2,274.2,194.2z"/>
	<path fill="#A2CD3A" d="M625.1,1045.6c-0.7,0-1.4-0.2-2-0.6c-1.6-1.1-1.9-3.3-0.8-4.8c0.1-0.2,3.6-5,17.8-23.6
		c2.7-3.6,3.9-7.1,3.4-10.5c-0.9-5.8-6.2-9.9-6.6-10.2c-1.2-0.8-13-9-13.8-21.3c-0.5-7.7,3.3-15,11.4-21.8c5.7-4.8,8.3-9.7,7.8-14.5
		c-1-9.9-14.2-17.5-14.3-17.6c-0.3-0.2-0.5-0.3-0.8-0.6c-0.2-0.2-5.8-5.9-5.7-14.8c0.1-6.9,3.6-13.6,10.4-20
		c7.8-7.3,4.4-11.4,4-11.8c-1.4-1.4-1.3-3.5,0-4.9c1.4-1.4,3.6-1.3,4.9,0c0.3,0.3,3.1,3.3,3,8.2c-0.1,4.5-2.5,9.1-7.3,13.6
		c-5.4,5-8.1,10.1-8.2,15c-0.1,5,2.6,8.5,3.4,9.5c2.9,1.7,16.1,10.3,17.3,22.6c0.7,7.2-2.7,14.1-10.3,20.5
		c-6.3,5.3-9.3,10.7-8.9,16.1c0.6,9.1,10.7,15.9,10.8,16c0,0,0.1,0,0.1,0.1c0.3,0.2,8.1,5.8,9.5,14.8c0.8,5.4-0.8,10.7-4.7,15.9
		c-14.1,18.3-17.6,23.3-17.6,23.3C627.3,1045.1,626.2,1045.6,625.1,1045.6z"/>
	<circle fill="#A2CD3A" cx="196.3" cy="853.3" r="37.3"/>
	<ellipse fill="#A2CD3A" cx="490.2" cy="1040.2" rx="37.3" ry="18.7"/>
	<ellipse fill="#A2CD3A" cx="467.6" cy="491.7" rx="37.3" ry="18.7"/>
	<path fill="#A2CD3A" d="M310.1,412.8c-0.9,0-1.8-0.3-2.5-1l-46.1-46.1c-1.4-1.4-1.4-3.6,0-4.9c1.4-1.4,3.6-1.4,4.9,0l46.1,46.1
		c1.4,1.4,1.4,3.6,0,4.9C311.9,412.5,311,412.8,310.1,412.8z"/>
	<path fill="#A2CD3A" d="M325.5,735.4H264c-1.9,0-3.5-1.6-3.5-3.5c0-1.9,1.6-3.5,3.5-3.5h61.4c1.9,0,3.5,1.6,3.5,3.5
		C328.9,733.8,327.4,735.4,325.5,735.4z"/>
	<path fill="#A2CD3A" d="M833.8,1211.3c-0.9,0-1.8-0.3-2.5-1l-68.6-68.6c-1.4-1.4-1.4-3.6,0-4.9c1.4-1.4,3.6-1.4,4.9,0l68.6,68.6
		c1.4,1.4,1.4,3.6,0,4.9C835.6,1211,834.7,1211.3,833.8,1211.3z"/>
	<path fill="#A2CD3A" d="M-30.4,352.5c-0.9,0-1.8-0.3-2.5-1c-1.4-1.4-1.4-3.6,0-4.9L85.4,228.3c1.4-1.4,3.6-1.4,4.9,0
		c1.4,1.4,1.4,3.6,0,4.9L-28,351.5C-28.7,352.1-29.6,352.5-30.4,352.5z"/>
	<path fill="#A2CD3A" d="M683,358.2c-0.9,0-1.8-0.3-2.5-1c-1.4-1.4-1.4-3.6,0-4.9L798.8,234c1.4-1.4,3.6-1.4,4.9,0
		c1.4,1.4,1.4,3.6,0,4.9L685.4,357.2C684.8,357.8,683.9,358.2,683,358.2z"/>
	<path fill="#A2CD3A" d="M0.1,1025c-0.9,0-1.8-0.3-2.5-1c-1.4-1.4-1.4-3.6,0-4.9l118.3-118.3c1.4-1.4,3.6-1.4,4.9,0
		c1.4,1.4,1.4,3.6,0,4.9L2.5,1024C1.8,1024.7,1,1025,0.1,1025z"/>
	<path fill="#A2CD3A" d="M466.2,216.3c-1.2,0-2.4-0.6-3-1.7c-7.6-13.1-22.9-12.5-39-12c-10.1,0.4-20.5,0.7-28.9-2.6
		c-1.8-0.7-2.7-2.7-2-4.5c0.7-1.8,2.7-2.7,4.5-2c7.1,2.8,16.3,2.5,26.1,2.1c16-0.6,33.9-1.2,44,13.4c10.2-1.7,22.2-9.6,32.9-16.5
		c6.1-4,11.9-7.7,17.1-10.2c1.7-0.8,3.8-0.1,4.6,1.6c0.8,1.7,0.1,3.8-1.6,4.6c-4.8,2.3-10.4,6-16.3,9.8
		c-12.1,7.9-25.8,16.8-38.1,17.9C466.4,216.3,466.3,216.3,466.2,216.3z"/>
	<path fill="#A2CD3A" d="M547.6,936c-0.4,0-0.9-0.1-1.3-0.2c-1.8-0.7-2.7-2.7-2-4.5c2.8-7.1,2.5-16.3,2.1-26.1
		c-0.6-16-1.2-33.9,13.4-44c-1.7-10.2-9.6-22.2-16.5-32.9c-4-6.1-7.7-11.9-10.2-17.1c-0.8-1.7-0.1-3.8,1.6-4.6
		c1.7-0.8,3.8-0.1,4.6,1.6c2.3,4.8,6,10.4,9.8,16.3c7.9,12.1,16.8,25.8,17.9,38.1c0.1,1.3-0.5,2.6-1.7,3.3
		c-13.1,7.6-12.5,22.9-12,39c0.4,10.1,0.7,20.5-2.6,28.9C550.3,935.1,549,936,547.6,936z"/>
	<path fill="#A2CD3A" d="M582.5,554.3c-1.2,0-2.4-0.6-3-1.8c-0.9-1.7-0.4-3.8,1.3-4.7c4.5-2.6,10.2-4.7,16.2-7
		c11.7-4.4,24.9-9.5,27.6-17.4c1.2-3.5,0.4-7.5-2.5-12.4c-2.8-4.6-6.8-8.4-10.6-12c-8.3-7.9-17.7-16.8-11.7-33.6
		c1.1-3.1,4.1-4.7,6.6-5.9c1.1-0.5,3.1-1.6,3.2-2.1c0.6-2.2,0.2-4.3-0.3-6.9c-0.4-1.9-0.8-3.9-0.7-6.1c0.1-6.4,0-13-0.2-19.4
		c-0.1-4.9-0.2-9.9-0.2-14.9c0-1.3,0-2.6,0-3.8c0.1-11.5,0.2-19.1-6.5-27.9c-2.1-2.8-4.2-4.7-6.3-6.6c-5.3-4.9-9.8-9.1-8.3-21.9
		c1-7.7,5.2-12.2,9-16.1c2.7-2.8,5-5.3,5.7-8.4c0.8-3.8-0.3-8-1.4-12.4c-1.2-4.7-2.5-9.5-1.9-14.7c0.2-1.9,1.9-3.3,3.8-3.1
		c1.9,0.2,3.3,1.9,3.1,3.8c-0.4,4,0.6,8,1.7,12.3c1.3,5,2.6,10.2,1.5,15.6c-1.1,5.1-4.3,8.5-7.4,11.7c-3.3,3.5-6.5,6.8-7.1,12.2
		c-1.1,9.2,1.3,11.5,6.1,15.9c2.1,2,4.6,4.3,7.1,7.5c8.1,10.7,8.1,20.1,8,32.1c0,1.2,0,2.5,0,3.8c0,4.9,0.1,9.9,0.2,14.7
		c0.1,6.5,0.3,13.2,0.2,19.7c0,1.4,0.3,3,0.6,4.6c0.6,3,1.3,6.4,0.2,10.2c-1,3.4-4.2,5.1-6.8,6.4c-1,0.5-3,1.5-3.2,2.1
		c-4.5,12.5,1.6,18.3,10,26.2c4.2,4,8.6,8.1,11.8,13.5c4,6.6,5,12.8,3.1,18.2c-3.8,10.9-18,16.4-31.7,21.6
		c-5.8,2.2-11.2,4.3-15.3,6.6C583.7,554.1,583.1,554.3,582.5,554.3z"/>
	<path fill="#A2CD3A" d="M825.8,714.3c-0.9,0-1.7-0.3-2.4-0.9c-5.4-5.1-12-10.6-19.1-16.5c-14.7-12.3-31.4-26.2-42.3-40.9
		c-6.7-9.1-6.7-16.2-6.8-23c0-4.7,0-9.2-2.2-14.7c-3.7-9.6-13.5-16.9-24-24.7c-13.2-9.8-26.9-20-28.1-36c-0.1-1.9,1.3-3.6,3.2-3.7
		c1.9-0.1,3.6,1.3,3.7,3.2c0.9,12.8,12.8,21.6,25.3,31c10.8,8,21.9,16.3,26.3,27.8c2.6,6.7,2.6,12.2,2.6,17.1c0,6.3,0.1,11.7,5.4,19
		c10.4,14.1,26.7,27.7,41.2,39.7c7.1,5.9,13.8,11.5,19.4,16.8c1.4,1.3,1.5,3.5,0.1,4.9C827.6,714,826.7,714.3,825.8,714.3z"/>
	<path fill="#A2CD3A" d="M871.9,830.7c-0.6,0-1.1-0.1-1.7-0.4c-4.5-2.5-9-5.1-13.7-8c-17-10.2-34.7-20.7-53.6-20.7c0,0-0.1,0-0.1,0
		c-9.7,0-18.4,3.8-27.7,7.9c-3.9,1.7-7.9,3.5-12,4.9c-1.8,0.6-3.8-0.3-4.4-2.1c-0.6-1.8,0.3-3.8,2.1-4.4c3.8-1.3,7.5-3,11.5-4.7
		c9.5-4.2,19.3-8.4,30.4-8.5c0,0,0.1,0,0.1,0c20.9,0,39.4,11,57.2,21.7c4.7,2.8,9.1,5.4,13.5,7.8c1.7,0.9,2.3,3,1.4,4.7
		C874.3,830.1,873.1,830.7,871.9,830.7z"/>
	<path fill="#A2CD3A" d="M546.9,581.5c0,0-23.7-20.7-33.1,12.9c-5.7,20.2,23.4,31.5,23.4,31.5s14.6,4.8,23.4-4
		c8.9-8.9,21.8,0.8,21.8,0.8s15.4,5.7,17.8-9.7c2.4-15.4-9.7-29.1-9.7-29.1s-4.6-8.1-15.6-0.8C563.9,590.4,559.1,592.9,546.9,581.5z
		"/>
	<path fill="#A2CD3A" d="M526.4,64.3c0,0-23.7-20.7-33.1,12.9c-5.7,20.2,23.4,31.5,23.4,31.5s14.6,4.9,23.4-4
		c8.9-8.9,21.8,0.8,21.8,0.8s15.4,5.7,17.8-9.7c2.4-15.4-9.7-29.1-9.7-29.1s-4.6-8.1-15.6-0.8C543.4,73.2,538.5,75.6,526.4,64.3z"/>
	<path fill="#A2CD3A" d="M601.1,1119.5c0,0-23.7-20.7-33.1,12.9c-5.7,20.2,23.4,31.5,23.4,31.5s14.5,4.8,23.4-4
		c8.9-8.9,21.8,0.8,21.8,0.8s15.4,5.7,17.8-9.7c2.4-15.4-9.7-29.1-9.7-29.1s-4.6-8.1-15.6-0.8
		C618.1,1128.4,613.3,1130.8,601.1,1119.5z"/>
	<path fill="#A2CD3A" d="M60.7,99.8c0,0,2.8,7.7,9.7,6.5c6.9-1.2,13.3,7.7,9.7,18.2c-3.6,10.5-8.1,30.7,4.4,39.6
		c12.5,8.9,23.8-15,23.8-15s11.3-16.6,17.8-12.1c6.5,4.4,0,27.9,6.9,30.7c6.9,2.8,24.7-28.3,24.7-28.3s6.5-20.6-2.8-29.5
		C145.6,101,125,120,125,120s-19.4,11.7-27.5-12.1c-8.1-23.8-15-40.8-24.7-38.8C63.2,71.1,55.9,84.4,60.7,99.8z"/>
	<path fill="#A2CD3A" d="M165.9,662.5c0,0-2.8-7.7-9.7-6.5c-6.9,1.2-13.3-7.7-9.7-18.2c3.6-10.5,8.1-30.7-4.4-39.6
		c-12.5-8.9-23.8,15-23.8,15s-11.3,16.6-17.8,12.1c-6.5-4.4,0-27.9-6.9-30.7c-6.9-2.8-24.7,28.3-24.7,28.3s-6.5,20.6,2.8,29.5
		c9.3,8.9,29.9-10.1,29.9-10.1s19.4-11.7,27.5,12.1c8.1,23.8,15,40.8,24.7,38.8C163.5,691.2,170.8,677.9,165.9,662.5z"/>
	<path fill="#A2CD3A" d="M415.6,922.8c0,0-5.8-6.5,0.4-11.7c6.2-5.2,1.8-15.4-11.6-18c-13.4-2.5-37.4-9.6-37.3-25
		c0-15.4,32.7-12.2,32.7-12.2s25.2-0.7,25.4-8.6c0.2-7.9-28.6-14.9-26.5-22.3c2.1-7.3,47-5.8,47-5.8s25.8,5.6,28.2,18.2
		c2.3,12.7-32.1,20-32.1,20s-26.1,10.2-7.6,29.8c18.5,19.6,30.9,34.6,21.8,41.7C446.7,936.1,427.8,935.2,415.6,922.8z"/>
	<path fill="#A2CD3A" d="M153.7,318c0,0,2,15.4,17.8,25.1c0,0,8.1,2.9,6.1,5.9c-2,3-2,3-2,3s-3.8,3.2,2.3,6.1
		c6.1,2.8,19.5,8.1,34.4,0c15-8.1-2-9-2-9s-6.9-1.5-2-7.1c4.9-5.7,17.4-18.2,13.7-36c-4.7-22.8-28.3-32.3-39.2-29.9
		C171.9,278.4,148.8,288.5,153.7,318z"/>
	<path fill="#A2CD3A" d="M734.9,505c-1.2,0-2.3-0.6-3-1.7c-1-1.7-0.4-3.8,1.2-4.8l31.6-18.6l-31.3-15.1c-1.2-0.6-1.9-1.7-2-3
		c0-1.3,0.6-2.5,1.8-3.1l31.3-17.6l-31.1-14.9c-1.1-0.5-1.8-1.6-2-2.8c-0.1-1.2,0.4-2.4,1.4-3.1l32.3-23.8l-31.7-13.9
		c-1.8-0.8-2.6-2.8-1.8-4.6c0.8-1.8,2.8-2.6,4.6-1.8l37.2,16.3c1.1,0.5,1.9,1.6,2.1,2.8c0.1,1.2-0.4,2.4-1.4,3.2l-32.5,23.9l32,15.3
		c1.2,0.6,1.9,1.7,2,3c0,1.3-0.6,2.5-1.8,3.1l-31.4,17.6l31.2,15.1c1.2,0.6,1.9,1.7,2,3c0.1,1.3-0.6,2.5-1.7,3.1l-37.2,21.9
		C736.1,504.9,735.5,505,734.9,505z"/>
	<path fill="#A2CD3A" d="M274.2,1176.7L274.2,1176.7c-1.9,0-3.5-1.6-3.5-3.5c0-0.5,0.1-4.5,3.6-7.9c3.3-3.2,8.2-4.6,14.7-4.4
		c7.3,0.2,12.8-1.4,16.4-4.8c3.6-3.4,4.2-7.9,4.4-9.2c-0.8-3.2-4.1-18.7,3.7-28.2c4.6-5.6,11.9-8.1,21.7-7.2c8.2,0.7,14.1-1,17.7-5
		c6.1-6.9,3.7-18.8,3.7-18.9c0,0,0-0.1,0-0.1c-0.1-0.4-1.6-9.8,3.8-17.2c3.2-4.4,8.1-7,14.6-7.9c22.9-3,28.9-4,29-4
		c1.9-0.3,3.7,0.9,4,2.8c0.3,1.9-0.9,3.7-2.8,4c-0.2,0-6.1,1-29.2,4.1c-4.5,0.6-7.8,2.3-9.9,5.1c-3.5,4.7-2.6,11.4-2.5,11.8
		c0.3,1.4,2.9,15.6-5.3,24.8c-5.1,5.8-13,8.2-23.5,7.4c-7.4-0.6-12.7,1-15.8,4.7c-6.3,7.7-2.3,22.4-2.3,22.5
		c0.1,0.3,0.1,0.6,0.1,0.9c0,0.3-0.1,8.3-6.4,14.5c-5,4.8-12.2,7.1-21.5,6.8c-10.6-0.4-11.2,4.9-11.2,5.5
		C277.6,1175.2,276.1,1176.7,274.2,1176.7z"/>
	<path fill="#A2CD3A" d="M64,1234.4c-0.9,0-1.8-0.3-2.5-1l-46.1-46.1c-1.4-1.4-1.4-3.6,0-4.9c1.4-1.4,3.6-1.4,4.9,0l46.1,46.1
		c1.4,1.4,1.4,3.6,0,4.9C65.8,1234,64.9,1234.4,64,1234.4z"/>
	<path fill="#A2CD3A" d="M663.5,82.9c-0.9,0-1.8-0.3-2.5-1c-1.4-1.4-1.4-3.6,0-4.9L779.3-41.3c1.4-1.4,3.6-1.4,4.9,0
		c1.4,1.4,1.4,3.6,0,4.9L666,81.9C665.3,82.5,664.4,82.9,663.5,82.9z"/>
	<path fill="#A2CD3A" d="M60.7,1082.2c0,0,2.8,7.7,9.7,6.5c6.9-1.2,13.3,7.7,9.7,18.2c-3.6,10.5-8.1,30.7,4.4,39.6
		c12.5,8.9,23.8-15,23.8-15s11.3-16.6,17.8-12.1c6.5,4.4,0,27.9,6.9,30.7c6.9,2.8,24.7-28.3,24.7-28.3s6.5-20.6-2.8-29.5
		c-9.3-8.9-29.9,10.1-29.9,10.1s-19.4,11.7-27.5-12.1c-8.1-23.8-15-40.8-24.7-38.8C63.2,1053.5,55.9,1066.9,60.7,1082.2z"/>
	<path fill="#A2CD3A" d="M708,166.9c0,0,2,15.4,17.8,25.1c0,0,8.1,2.9,6.1,5.9c-2,3-2,3-2,3s-3.8,3.2,2.3,6.1
		c6.1,2.8,19.5,8.1,34.4,0c15-8.1-2-9-2-9s-6.9-1.5-2-7.1c4.9-5.7,17.4-18.2,13.7-36c-4.7-22.8-28.3-32.3-39.2-29.9
		C726.2,127.3,703.1,137.4,708,166.9z"/>
	<path fill="#A2CD3A" d="M-8.7,877.9c-1.1,0-2.1,0-3.2-0.1c-1.9-0.2-3.3-1.8-3.2-3.7c0.2-1.9,1.8-3.3,3.8-3.2
		c11.9,1,24.9-5.2,38.6-11.8c14.7-7,29.9-14.3,46.3-14.4c17,0,34.2,1.1,50.8,2.1c16.5,1.1,33.5,2.2,50.7,2.2c1.9,0,3.5,1.6,3.5,3.5
		c0,1.9-1.6,3.5-3.5,3.5c-17.4,0-34.5-1.1-51.1-2.2c-16.5-1.1-33.5-2.2-50.3-2.1c-14.9,0-29.4,7-43.4,13.7
		C16.8,871.8,4,877.9-8.7,877.9z"/>
	<path fill="#A2CD3A" d="M231.2,477.5c0,0-15.1-10.8-24.2,5.9c-9.2,16.7,12.1,31.8,12.1,31.8s14.8,11.3,27.8,3.2
		c12.9-8.1,12.4-11.7,26.4-16.9c14-5.2,21-12.7,18.3-24.6c-2.7-11.9-14.6-14-24.8-7C256.5,477,246.8,486.2,231.2,477.5z"/>
	<path fill="#A2CD3A" d="M246.8,1033.1c0,0-15.1-10.8-24.2,5.9c-9.2,16.7,12.1,31.8,12.1,31.8s14.8,11.3,27.8,3.2
		c12.9-8.1,12.4-11.7,26.4-16.9c14-5.2,21-12.7,18.3-24.6c-2.7-11.9-14.6-14-24.8-7C272.2,1032.5,262.5,1041.7,246.8,1033.1z"/>
	<path fill="#A2CD3A" d="M412.8,267.9c0,0-30.2,4.8-21,14c9.2,9.2,16.2,13.5-6.5,16.7c-22.6,3.2-55,12.9-30.7,35.6
		c24.2,22.6,18.9,17.8,10.2,29.1c-8.6,11.3-8.6,39.3,31.8,30.7c40.4-8.6,10.8-31.7,10.8-31.7s-27.5-13.1-8.6-26.5
		c18.9-13.5,3.8-11.9,0-14.6c-3.8-2.7,4.3-17.2,25.3-15.6c21,1.6,56-15.8,28.6-30C425.1,261.5,412.8,267.9,412.8,267.9z"/>
	<path fill="#A2CD3A" d="M745.2,903c0,0,12.4,9.7,2.2,30.7c-10.2,21-4.3,47.4,7.3,53.9c11.6,6.5,18.1-1.6,21-3c3-1.3,7-4.2,9.2,5.4
		c2.2,9.6,9.4,21.2,15.9,16.4c6.5-4.8,7.3-24.5,21-16.2c13.7,8.4,23.7,11,21.6-6.5c-2.2-17.5-19.4-36.4-19.4-36.4
		s-13.5-18.3-22.6,2.2c-9.2,20.5-17.5,10.8-20.7,2.2c-3.2-8.6-13.7-23.2-13.7-23.2s-7-16.7-2.4-24.2c4.6-7.5-3.2-14.7-9.4-13.7
		C748.7,891.6,740.6,896.2,745.2,903z"/>
</g>
</svg>
