<?xml version="1.0" encoding="utf-8"?>
<!-- Generator: Adobe Illustrator 18.0.0, SVG Export Plug-In . SVG Version: 6.00 Build 0)  -->
<!DOCTYPE svg PUBLIC "-//W3C//DTD SVG 1.1//EN" "http://www.w3.org/Graphics/SVG/1.1/DTD/svg11.dtd">
<svg version="1.1" id="Layer_1" xmlns="http://www.w3.org/2000/svg" xmlns:xlink="http://www.w3.org/1999/xlink" x="0px" y="0px"
	 viewBox="0 0 236.1 175" enable-background="new 0 0 236.1 175" xml:space="preserve">
<g>
	<g>
		<g>
			<path d="M143.4,80.4l-7.4,7.4l7.4,7.4l7.4-7.4L143.4,80.4z M130.1,87.7l13.3-13.3l13.3,13.3L143.4,101L130.1,87.7z"/>
			<path d="M143.4,70.7l-17.1,17.1l17.1,17.1l17.1-17.1L143.4,70.7z M120.4,87.7l23-23l23,23l-23,23L120.4,87.7z"/>
			<path d="M143.4,60.9l-26.8,26.8l26.8,26.8l26.8-26.8L143.4,60.9z M110.6,87.7L143.4,55l32.8,32.8l-32.8,32.8L110.6,87.7z"/>
			<path d="M143.4,51.2l-36.6,36.6l36.6,36.6L180,87.7L143.4,51.2z M100.9,87.7l42.5-42.5l42.5,42.5l-42.5,42.5L100.9,87.7z"/>
			<path d="M143.4,41.4L97.1,87.7l46.3,46.3l46.3-46.3L143.4,41.4z M91.1,87.7l52.3-52.3l52.3,52.3L143.4,140L91.1,87.7z"/>
			<path d="M143.4,31.7L87.3,87.7l56.1,56.1l56.1-56.1L143.4,31.7z M81.4,87.7l62-62l62,62l-62,62L81.4,87.7z"/>
			<path d="M143.4,21.9L77.6,87.7l65.8,65.8l65.8-65.8L143.4,21.9z M71.7,87.7L143.4,16l71.7,71.7l-71.7,71.7L71.7,87.7z"/>
			<path d="M143.4,12.2L67.9,87.7l75.5,75.5l75.5-75.5L143.4,12.2z M61.9,87.7l81.5-81.5l81.5,81.5l-81.5,81.5L61.9,87.7z"/>
		</g>
	</g>
	<g>
		<path fill="#6D6E71" d="M93.9,80.4l-7.4,7.4l7.4,7.4l7.4-7.4L93.9,80.4z M80.6,87.7l13.3-13.3l13.3,13.3L93.9,101L80.6,87.7z"/>
		<path fill="#6D6E71" d="M93.9,70.7L76.8,87.7l17.1,17.1L111,87.7L93.9,70.7z M70.9,87.7l23-23l23,23l-23,23L70.9,87.7z"/>
		<path fill="#6D6E71" d="M93.9,60.9L67,87.7l26.8,26.8l26.8-26.8L93.9,60.9z M61.1,87.7L93.9,55l32.8,32.8l-32.8,32.8L61.1,87.7z"
			/>
		<path fill="#6D6E71" d="M93.9,51.2L57.3,87.7l36.6,36.6l36.6-36.6L93.9,51.2z M51.4,87.7l42.5-42.5l42.5,42.5l-42.5,42.5
			L51.4,87.7z"/>
		<path fill="#6D6E71" d="M93.9,41.4L47.6,87.7l46.3,46.3l46.3-46.3L93.9,41.4z M41.6,87.7l52.3-52.3l52.3,52.3L93.9,140L41.6,87.7z
			"/>
		<path fill="#6D6E71" d="M93.9,31.7L37.8,87.7l56.1,56.1l56.1-56.1L93.9,31.7z M31.9,87.7l62-62l62,62l-62,62L31.9,87.7z"/>
		<path fill="#6D6E71" d="M93.9,21.9L28.1,87.7l65.8,65.8l65.8-65.8L93.9,21.9z M22.1,87.7L93.9,16l71.7,71.7l-71.7,71.7L22.1,87.7z
			"/>
		<path fill="#6D6E71" d="M93.9,12.2L18.3,87.7l75.5,75.5l75.5-75.5L93.9,12.2z M12.4,87.7L93.9,6.3l81.5,81.5l-81.5,81.5L12.4,87.7
			z"/>
	</g>
</g>
</svg>
