<?xml version="1.0" encoding="utf-8"?>
<!-- Generator: Adobe Illustrator 18.0.0, SVG Export Plug-In . SVG Version: 6.00 Build 0)  -->
<!DOCTYPE svg PUBLIC "-//W3C//DTD SVG 1.1//EN" "http://www.w3.org/Graphics/SVG/1.1/DTD/svg11.dtd">
<svg version="1.1" id="Layer_1" xmlns="http://www.w3.org/2000/svg" xmlns:xlink="http://www.w3.org/1999/xlink" x="0px" y="0px"
	 viewBox="0 0 260.5 164" enable-background="new 0 0 260.5 164" xml:space="preserve">
<path fill="#E6E7E8" d="M163.9,10.3c1.1-0.5,2.5-0.8,3.9-0.8c6.1,0,9.5,3.7,12.5,7c2.3,2.5,4.5,4.8,7.7,5.6c2.3,0.2,5-0.4,8.8-2.1
	c1.5-0.7,3-1.5,4.5-2.2c1.6-0.8,3.2-1.6,4.8-2.3c4.9-2.2,10.6-4,16.2-1.2c13.2,6.8,23.7,20.6,27.4,36.2c2,8.2,1.2,18.2-5,21
	c-2.6,1.2-7.1,1.4-13.7-4.4c-2.3-2-3.8-4.2-5-6.1c-1.9-2.9-3.4-5.1-7.4-6.7c-1.2-0.5-2.8-0.3-4.8,0.6c-5.2,2.4-10.6,8.5-10.6,8.6
	l-0.2,0.2l-0.2,0.2c-0.6,0.4-1.3,0.7-1.9,1c-7.6,3.4-13.3-1.6-17.9-5.7c-2.7-2.4-5.2-4.6-7.2-4.3c-2.5,0.4-5.1,1.2-7.7,2.3
	c-6.9,3.1-12.5,8.4-15,14.2c-1.5,3.4-1.1,7.2-0.7,11.2c0.5,5,1.1,10.3-2.3,14.7c-1.4,1.9-2.9,3.2-4.5,3.9c-4.6,2.1-8.9-0.7-13.1-3.5
	c-3.4-2.2-6.9-4.6-10.6-4.3c-3.5,0.2-6.5,0.9-8.8,2c-9.4,4.2-9.3,15-9.2,26.3c0.1,10.7,0.2,21.7-7.7,28.1c-1.4,1.1-2.8,2-4.2,2.7
	c-6.4,2.9-11.6-0.3-16.1-3.1c-3.8-2.3-7.3-4.5-11.7-4.1c-2.2,0.2-4.3,0.8-6.6,1.9c-1.8,0.8-3.5,1.8-5.1,2.7c-1.6,0.9-3.3,1.9-5,2.7
	c-3.3,1.5-7.9,2.9-14.2,0.5c-10.3-4-24.3-15.5-21.6-27.3c1.5-6.5,4.5-10.9,8.9-12.9c8.3-3.7,19.7,1.6,28.8,5.8
	c3.7,1.7,7.3,3.4,9.9,4.1c4.2,1.1,6.2,0.8,7.2,0.3c3.5-1.6,1.3-9.6-0.6-16.1c-0.7-2.5-1.4-4.9-1.8-7c-0.7-3.6,0.6-6.1,3.8-7.5
	c1-0.5,2.2-0.8,3.4-1.2c1.3-0.4,2.7-0.8,4.1-1.4c2.6-1.2,4.4-2.8,5.7-5.1l0.1-0.2c2.7-3.5,2.6-8.2,2.5-12.8
	c-0.1-5.1-0.2-10.4,4.5-12.5c0.4-0.2,0.8-0.3,1.3-0.4c4.2-1.1,8.1,0.4,11.6,1.7c3.7,1.4,6.9,2.6,10.1,1.2c0.6-0.3,1.3-0.7,1.9-1.2
	c1.2-1.2,0.4-4-0.5-7.3c-1.4-5.3-3.4-12.5,3-17.7c0.6-0.5,1.3-0.9,2-1.2c3.7-1.7,9.1-1.8,14.8-2c5.7-0.2,11.6-0.4,15.3-2.1
	c0.3-0.1,0.6-0.3,0.9-0.5c4.3-2.9,6.3-7.2,8-10.9C158.9,15.3,160.5,11.9,163.9,10.3z M198.4,23.5c-3,1.4-6.9,2.9-10.9,2.4l-0.2,0
	c-4.4-1-7.3-4-9.8-6.7c-2.9-3.1-5.3-5.7-9.8-5.8c-0.9,0-1.6,0.1-2.3,0.4c-2.1,1-3.3,3.5-4.8,6.7c-1.9,4-4.2,9-9.4,12.5l-0.1,0.1
	c-0.4,0.2-0.9,0.5-1.3,0.7c-4.4,2-10.7,2.2-16.8,2.4c-5.1,0.2-10.4,0.4-13.4,1.7c-0.5,0.2-0.9,0.5-1.2,0.7
	c-4.2,3.4-3.4,7.6-1.7,13.7c1.1,4.1,2.3,8.4-0.7,11.1l-0.1,0.1c-0.9,0.7-1.8,1.3-2.8,1.7c-4.7,2.1-9.1,0.4-13-1.1
	C97,62.9,94,61.8,91,62.6c-0.2,0.1-0.5,0.1-0.7,0.2c-2.2,1-2.3,4.1-2.2,9c0.1,5,0.2,10.6-3.2,15.1c-1.7,3-4.1,5.1-7.4,6.6
	c-1.6,0.7-3.2,1.2-4.6,1.6c-1.1,0.3-2.1,0.6-2.9,1c-1.5,0.7-2,1.3-1.6,3.4c0.4,1.9,1,4.3,1.7,6.7c2.3,8.3,5,17.6-1.5,20.6
	c-2.3,1-5.5,1-9.8-0.1c-3-0.8-6.6-2.5-10.5-4.3c-8.5-3.9-19-8.8-25.7-5.8c-3.3,1.5-5.5,4.9-6.8,10.3c-2.1,9.1,10,19.3,19.2,22.9
	c4.9,1.9,8.4,0.9,11.2-0.4c1.5-0.7,3-1.6,4.6-2.5c1.7-1,3.5-2,5.5-2.9c2.6-1.2,5.2-1.9,7.7-2.2c5.7-0.6,10.2,2.2,14.1,4.6
	c4.4,2.8,7.9,4.9,12.5,2.9c1.1-0.5,2.2-1.2,3.4-2.2c6.5-5.3,6.4-14.9,6.3-25.1c-0.1-12.1-0.2-24.5,11.4-29.8c2.8-1.3,6.2-2,10.1-2.3
	c5-0.3,9.2,2.5,13,4.9c3.6,2.4,6.7,4.4,9.4,3.2c1-0.5,2-1.4,3.1-2.7c2.4-3.2,2-7.5,1.5-12c-0.4-4.3-0.9-8.8,0.9-13.1
	c2.9-6.7,9.1-12.6,16.9-16.1c2.9-1.3,5.8-2.2,8.7-2.6c3.7-0.6,6.9,2.2,10.3,5.2c5.1,4.5,8.9,7.3,13.9,5.1c0.4-0.2,0.8-0.4,1.2-0.6
	c1.1-1.2,6.3-6.9,11.7-9.4l0,0c2.9-1.3,5.5-1.5,7.7-0.7c5.1,2,7.2,5.1,9.2,8.1c1.2,1.9,2.4,3.6,4.3,5.3c4,3.5,7.4,4.8,9.6,3.8
	c3.5-1.6,4.7-8.9,2.8-16.7c-3.5-14.5-13.2-27.4-25.5-33.7c-3.3-1.7-7.1-1.3-12.9,1.3c-1.5,0.7-3.1,1.5-4.6,2.2
	C201.5,22,199.9,22.8,198.4,23.5z"/>
</svg>
